<svg width="51" height="88" viewBox="0 0 51 88" fill="none" xmlns="http://www.w3.org/2000/svg">
<path d="M40.4153 81.8807C39.6556 82.0539 38.095 82.7558 37.46 82.1106C36.6032 81.2426 37.7188 80.5691 38.4354 80.1263C39.8436 79.2646 42.4379 78.9226 43.4658 77.704C31.3112 74.0028 21.1219 66.3965 14.3173 55.6249C7.55041 44.9116 3.49627 30.8155 7.58395 18.3395C9.58452 12.2329 13.2314 6.71116 19.0367 3.62012C19.5374 3.35413 21.9391 1.92582 22.0842 3.07149C22.1592 3.66809 19.0612 5.46773 18.556 5.87451C15.9401 7.99571 13.8334 10.4505 12.2036 13.392C6.63603 23.4164 7.94354 36.115 12.3326 46.2462C15.2413 52.9596 19.7133 59.171 25.1068 64.1517C27.8897 66.7257 30.9774 69.0844 34.3149 70.9061C37.1292 72.44 41.6954 75.0755 44.9998 74.9848C43.9491 72.3017 40.2364 70.5471 38.7955 68.0258C38.027 66.688 38.3595 64.8806 40.2111 65.5098C41.7177 66.0171 43.1434 68.4447 44.1524 69.6062C45.2781 70.9051 46.3542 72.2275 47.3566 73.6275C48.0901 74.6512 50.0888 76.5411 49.8825 77.858C49.5143 80.1779 42.3554 81.3718 40.4153 81.8807C39.6208 82.0618 41.2265 81.6655 40.4153 81.8807Z" fill="#FFCA00"/>
</svg>
