<svg width="51" height="87" viewBox="0 0 51 87" fill="none" xmlns="http://www.w3.org/2000/svg">
<path d="M9.98213 81.7357C10.7419 81.9088 12.3024 82.6107 12.9375 81.9656C13.7942 81.0975 12.6787 80.4241 11.9621 79.9813C10.5539 79.1196 7.9596 78.7775 6.93168 77.559C19.0863 73.8578 29.2755 66.2514 36.0801 55.4799C42.847 44.7665 46.9012 30.6704 42.8135 18.1945C40.8129 12.0879 37.1661 6.56611 31.3607 3.47507C30.86 3.20908 28.4584 1.78077 28.3132 2.92644C28.2383 3.52304 31.3363 5.32268 31.8414 5.72946C34.4574 7.85066 36.5641 10.3054 38.1938 13.247C43.7614 23.2713 42.4539 35.97 38.0648 46.1011C35.1561 52.8146 30.6841 59.026 25.2907 64.0066C22.5078 66.5806 19.4201 68.9393 16.0826 70.7611C13.2682 72.295 8.70205 74.9305 5.3977 74.8397C6.4484 72.1566 10.161 70.4021 11.6019 67.8808C12.3705 66.543 12.038 64.7356 10.1864 65.3648C8.67973 65.8721 7.2541 68.2996 6.24511 69.4611C5.11938 70.7601 4.04321 72.0824 3.04088 73.4824C2.30732 74.5062 0.308704 76.3961 0.514988 77.713C0.883176 80.0328 8.04208 81.2267 9.98213 81.7357C9.17094 81.5204 10.7767 81.9167 9.98213 81.7357Z" fill="white"/>
</svg>
