<svg width="35" height="51" viewBox="0 0 35 51" fill="none" xmlns="http://www.w3.org/2000/svg">
<path d="M4.90098 29.0958C7.96042 32.2113 12.0162 34.0149 16.3607 34.2018C16.3812 34.4733 16.3965 34.8474 16.3965 35.3594C16.3965 37.457 14.8013 43.8663 13.7957 47.4135L12.7667 51.043L25.2543 51.043L26.0908 49.6952C26.4226 49.1605 34.2187 36.3785 34.2187 17.1094C34.2187 7.67526 26.5435 -3.1437e-06 17.1094 -2.31895e-06C7.67526 -1.49419e-06 2.3372e-08 7.67527 8.48128e-07 17.1094C1.24252e-06 21.6207 1.74059 25.8775 4.90098 29.0958ZM17.1094 5.70312C23.3988 5.70312 28.5156 10.82 28.5156 17.1094C28.5156 31.2702 23.8339 41.7517 21.9838 45.3398L20.2545 45.3398C21.0739 42.1199 22.0996 37.6348 22.0996 35.3594C22.0996 33.5538 21.9656 32.1032 21.311 30.8924C20.728 29.8139 19.5087 28.5295 17.0076 28.5158L16.8831 28.5126C10.7185 28.3932 5.70313 23.2777 5.70313 17.1094C5.70313 10.82 10.82 5.70312 17.1094 5.70312Z" fill="#FFCA00"/>
</svg>
