<svg width="52" height="64" viewBox="0 0 52 64" fill="none" xmlns="http://www.w3.org/2000/svg">
<path d="M44.0625 63.875H7.9375C5.96564 63.8727 4.07519 63.0884 2.68088 61.6941C1.28656 60.2998 0.50225 58.4094 0.5 56.4375V7.5625C0.50225 5.59064 1.28656 3.70019 2.68088 2.30588C4.07519 0.911564 5.96564 0.12725 7.9375 0.125H44.0625C46.0344 0.12725 47.9248 0.911564 49.3191 2.30588C50.7134 3.70019 51.4977 5.59064 51.5 7.5625V56.4375C51.4977 58.4094 50.7134 60.2998 49.3191 61.6941C47.9248 63.0884 46.0344 63.8727 44.0625 63.875ZM7.9375 2.25C6.52906 2.25169 5.17878 2.81194 4.18286 3.80786C3.18694 4.80378 2.62669 6.15406 2.625 7.5625V56.4375C2.62669 57.8459 3.18694 59.1962 4.18286 60.1921C5.17878 61.1881 6.52906 61.7483 7.9375 61.75H44.0625C45.4709 61.7483 46.8212 61.1881 47.8171 60.1921C48.8131 59.1962 49.3733 57.8459 49.375 56.4375V7.5625C49.3733 6.15406 48.8131 4.80378 47.8171 3.80786C46.8212 2.81194 45.4709 2.25169 44.0625 2.25H7.9375Z" fill="white"/>
<path d="M29.1875 59.625H22.8125C21.9671 59.625 21.1564 59.2892 20.5586 58.6914C19.9608 58.0936 19.625 57.2829 19.625 56.4375V52.1875C19.625 51.3421 19.9608 50.5314 20.5586 49.9336C21.1564 49.3358 21.9671 49 22.8125 49H29.1875C30.0329 49 30.8436 49.3358 31.4414 49.9336C32.0392 50.5314 32.375 51.3421 32.375 52.1875V56.4375C32.375 57.2829 32.0392 58.0936 31.4414 58.6914C30.8436 59.2892 30.0329 59.625 29.1875 59.625ZM22.8125 51.125C22.5307 51.125 22.2605 51.2369 22.0612 51.4362C21.8619 51.6355 21.75 51.9057 21.75 52.1875V56.4375C21.75 56.7193 21.8619 56.9895 22.0612 57.1888C22.2605 57.3881 22.5307 57.5 22.8125 57.5H29.1875C29.4693 57.5 29.7395 57.3881 29.9388 57.1888C30.1381 56.9895 30.25 56.7193 30.25 56.4375V52.1875C30.25 51.9057 30.1381 51.6355 29.9388 51.4362C29.7395 51.2369 29.4693 51.125 29.1875 51.125H22.8125Z" fill="white"/>
<path d="M14.3125 59.625H7.9375C7.09212 59.625 6.28137 59.2892 5.6836 58.6914C5.08582 58.0936 4.75 57.2829 4.75 56.4375V52.1875C4.75 51.3421 5.08582 50.5314 5.6836 49.9336C6.28137 49.3358 7.09212 49 7.9375 49H14.3125C15.1579 49 15.9686 49.3358 16.5664 49.9336C17.1642 50.5314 17.5 51.3421 17.5 52.1875V56.4375C17.5 57.2829 17.1642 58.0936 16.5664 58.6914C15.9686 59.2892 15.1579 59.625 14.3125 59.625ZM7.9375 51.125C7.65571 51.125 7.38546 51.2369 7.1862 51.4362C6.98694 51.6355 6.875 51.9057 6.875 52.1875V56.4375C6.875 56.7193 6.98694 56.9895 7.1862 57.1888C7.38546 57.3881 7.65571 57.5 7.9375 57.5H14.3125C14.5943 57.5 14.8645 57.3881 15.0638 57.1888C15.2631 56.9895 15.375 56.7193 15.375 56.4375V52.1875C15.375 51.9057 15.2631 51.6355 15.0638 51.4362C14.8645 51.2369 14.5943 51.125 14.3125 51.125H7.9375Z" fill="white"/>
<path d="M44.0625 59.625H37.6875C36.8421 59.625 36.0314 59.2892 35.4336 58.6914C34.8358 58.0936 34.5 57.2829 34.5 56.4375V39.4375C34.5 38.5921 34.8358 37.7814 35.4336 37.1836C36.0314 36.5858 36.8421 36.25 37.6875 36.25H44.0625C44.9079 36.25 45.7186 36.5858 46.3164 37.1836C46.9142 37.7814 47.25 38.5921 47.25 39.4375V56.4375C47.25 57.2829 46.9142 58.0936 46.3164 58.6914C45.7186 59.2892 44.9079 59.625 44.0625 59.625ZM37.6875 38.375C37.4057 38.375 37.1355 38.4869 36.9362 38.6862C36.7369 38.8855 36.625 39.1557 36.625 39.4375V56.4375C36.625 56.7193 36.7369 56.9895 36.9362 57.1888C37.1355 57.3881 37.4057 57.5 37.6875 57.5H44.0625C44.3443 57.5 44.6145 57.3881 44.8138 57.1888C45.0131 56.9895 45.125 56.7193 45.125 56.4375V39.4375C45.125 39.1557 45.0131 38.8855 44.8138 38.6862C44.6145 38.4869 44.3443 38.375 44.0625 38.375H37.6875Z" fill="white"/>
<path d="M29.1875 46.875H22.8125C21.9671 46.875 21.1564 46.5392 20.5586 45.9414C19.9608 45.3436 19.625 44.5329 19.625 43.6875V39.4375C19.625 38.5921 19.9608 37.7814 20.5586 37.1836C21.1564 36.5858 21.9671 36.25 22.8125 36.25H29.1875C30.0329 36.25 30.8436 36.5858 31.4414 37.1836C32.0392 37.7814 32.375 38.5921 32.375 39.4375V43.6875C32.375 44.5329 32.0392 45.3436 31.4414 45.9414C30.8436 46.5392 30.0329 46.875 29.1875 46.875ZM22.8125 38.375C22.5307 38.375 22.2605 38.4869 22.0612 38.6862C21.8619 38.8855 21.75 39.1557 21.75 39.4375V43.6875C21.75 43.9693 21.8619 44.2395 22.0612 44.4388C22.2605 44.6381 22.5307 44.75 22.8125 44.75H29.1875C29.4693 44.75 29.7395 44.6381 29.9388 44.4388C30.1381 44.2395 30.25 43.9693 30.25 43.6875V39.4375C30.25 39.1557 30.1381 38.8855 29.9388 38.6862C29.7395 38.4869 29.4693 38.375 29.1875 38.375H22.8125Z" fill="white"/>
<path d="M14.3125 46.875H7.9375C7.09212 46.875 6.28137 46.5392 5.6836 45.9414C5.08582 45.3436 4.75 44.5329 4.75 43.6875V39.4375C4.75 38.5921 5.08582 37.7814 5.6836 37.1836C6.28137 36.5858 7.09212 36.25 7.9375 36.25H14.3125C15.1579 36.25 15.9686 36.5858 16.5664 37.1836C17.1642 37.7814 17.5 38.5921 17.5 39.4375V43.6875C17.5 44.5329 17.1642 45.3436 16.5664 45.9414C15.9686 46.5392 15.1579 46.875 14.3125 46.875ZM7.9375 38.375C7.65571 38.375 7.38546 38.4869 7.1862 38.6862C6.98694 38.8855 6.875 39.1557 6.875 39.4375V43.6875C6.875 43.9693 6.98694 44.2395 7.1862 44.4388C7.38546 44.6381 7.65571 44.75 7.9375 44.75H14.3125C14.5943 44.75 14.8645 44.6381 15.0638 44.4388C15.2631 44.2395 15.375 43.9693 15.375 43.6875V39.4375C15.375 39.1557 15.2631 38.8855 15.0638 38.6862C14.8645 38.4869 14.5943 38.375 14.3125 38.375H7.9375Z" fill="white"/>
<path d="M29.1875 34.125H22.8125C21.9671 34.125 21.1564 33.7892 20.5586 33.1914C19.9608 32.5936 19.625 31.7829 19.625 30.9375V26.6875C19.625 25.8421 19.9608 25.0314 20.5586 24.4336C21.1564 23.8358 21.9671 23.5 22.8125 23.5H29.1875C30.0329 23.5 30.8436 23.8358 31.4414 24.4336C32.0392 25.0314 32.375 25.8421 32.375 26.6875V30.9375C32.375 31.7829 32.0392 32.5936 31.4414 33.1914C30.8436 33.7892 30.0329 34.125 29.1875 34.125ZM22.8125 25.625C22.5307 25.625 22.2605 25.7369 22.0612 25.9362C21.8619 26.1355 21.75 26.4057 21.75 26.6875V30.9375C21.75 31.2193 21.8619 31.4895 22.0612 31.6888C22.2605 31.8881 22.5307 32 22.8125 32H29.1875C29.4693 32 29.7395 31.8881 29.9388 31.6888C30.1381 31.4895 30.25 31.2193 30.25 30.9375V26.6875C30.25 26.4057 30.1381 26.1355 29.9388 25.9362C29.7395 25.7369 29.4693 25.625 29.1875 25.625H22.8125Z" fill="white"/>
<path d="M14.3125 34.125H7.9375C7.09212 34.125 6.28137 33.7892 5.6836 33.1914C5.08582 32.5936 4.75 31.7829 4.75 30.9375V26.6875C4.75 25.8421 5.08582 25.0314 5.6836 24.4336C6.28137 23.8358 7.09212 23.5 7.9375 23.5H14.3125C15.1579 23.5 15.9686 23.8358 16.5664 24.4336C17.1642 25.0314 17.5 25.8421 17.5 26.6875V30.9375C17.5 31.7829 17.1642 32.5936 16.5664 33.1914C15.9686 33.7892 15.1579 34.125 14.3125 34.125ZM7.9375 25.625C7.65571 25.625 7.38546 25.7369 7.1862 25.9362C6.98694 26.1355 6.875 26.4057 6.875 26.6875V30.9375C6.875 31.2193 6.98694 31.4895 7.1862 31.6888C7.38546 31.8881 7.65571 32 7.9375 32H14.3125C14.5943 32 14.8645 31.8881 15.0638 31.6888C15.2631 31.4895 15.375 31.2193 15.375 30.9375V26.6875C15.375 26.4057 15.2631 26.1355 15.0638 25.9362C14.8645 25.7369 14.5943 25.625 14.3125 25.625H7.9375Z" fill="white"/>
<path d="M44.0625 34.125H37.6875C36.8421 34.125 36.0314 33.7892 35.4336 33.1914C34.8358 32.5936 34.5 31.7829 34.5 30.9375V26.6875C34.5 25.8421 34.8358 25.0314 35.4336 24.4336C36.0314 23.8358 36.8421 23.5 37.6875 23.5H44.0625C44.9079 23.5 45.7186 23.8358 46.3164 24.4336C46.9142 25.0314 47.25 25.8421 47.25 26.6875V30.9375C47.25 31.7829 46.9142 32.5936 46.3164 33.1914C45.7186 33.7892 44.9079 34.125 44.0625 34.125ZM37.6875 25.625C37.4057 25.625 37.1355 25.7369 36.9362 25.9362C36.7369 26.1355 36.625 26.4057 36.625 26.6875V30.9375C36.625 31.2193 36.7369 31.4895 36.9362 31.6888C37.1355 31.8881 37.4057 32 37.6875 32H44.0625C44.3443 32 44.6145 31.8881 44.8138 31.6888C45.0131 31.4895 45.125 31.2193 45.125 30.9375V26.6875C45.125 26.4057 45.0131 26.1355 44.8138 25.9362C44.6145 25.7369 44.3443 25.625 44.0625 25.625H37.6875Z" fill="white"/>
<path d="M44.0625 19.25H7.9375C7.09212 19.25 6.28137 18.9142 5.6836 18.3164C5.08582 17.7186 4.75 16.9079 4.75 16.0625V7.5625C4.75 6.71712 5.08582 5.90637 5.6836 5.3086C6.28137 4.71083 7.09212 4.375 7.9375 4.375H44.0625C44.9079 4.375 45.7186 4.71083 46.3164 5.3086C46.9142 5.90637 47.25 6.71712 47.25 7.5625V16.0625C47.25 16.9079 46.9142 17.7186 46.3164 18.3164C45.7186 18.9142 44.9079 19.25 44.0625 19.25ZM7.9375 6.5C7.65571 6.5 7.38546 6.61194 7.1862 6.8112C6.98694 7.01046 6.875 7.28071 6.875 7.5625V16.0625C6.875 16.3443 6.98694 16.6145 7.1862 16.8138C7.38546 17.0131 7.65571 17.125 7.9375 17.125H44.0625C44.3443 17.125 44.6145 17.0131 44.8138 16.8138C45.0131 16.6145 45.125 16.3443 45.125 16.0625V7.5625C45.125 7.28071 45.0131 7.01046 44.8138 6.8112C44.6145 6.61194 44.3443 6.5 44.0625 6.5H7.9375Z" fill="white"/>
<path d="M40.875 16.0625C40.0296 16.0625 39.2189 15.7267 38.6211 15.1289C38.0233 14.5311 37.6875 13.7204 37.6875 12.875V10.75C37.6875 9.90462 38.0233 9.09387 38.6211 8.4961C39.2189 7.89832 40.0296 7.5625 40.875 7.5625C41.7204 7.5625 42.5311 7.89832 43.1289 8.4961C43.7267 9.09387 44.0625 9.90462 44.0625 10.75V12.875C44.0625 13.7204 43.7267 14.5311 43.1289 15.1289C42.5311 15.7267 41.7204 16.0625 40.875 16.0625ZM40.875 9.6875C40.5932 9.6875 40.323 9.79944 40.1237 9.9987C39.9244 10.198 39.8125 10.4682 39.8125 10.75V12.875C39.8125 13.1568 39.9244 13.427 40.1237 13.6263C40.323 13.8256 40.5932 13.9375 40.875 13.9375C41.1568 13.9375 41.427 13.8256 41.6263 13.6263C41.8256 13.427 41.9375 13.1568 41.9375 12.875V10.75C41.9375 10.4682 41.8256 10.198 41.6263 9.9987C41.427 9.79944 41.1568 9.6875 40.875 9.6875Z" fill="white"/>
</svg>
