<svg width="21" height="21" viewBox="0 0 21 21" fill="none" xmlns="http://www.w3.org/2000/svg">
<path d="M20.7003 0.376923C20.684 0.153066 20.4894 -0.0151692 20.2655 0.00108537C20.1523 0.00931427 20.0476 0.06458 19.977 0.153422C19.977 0.153422 18.7335 1.68136 16.9211 1.57976C15.4988 1.50256 14.8893 3.29056 14.6698 4.24146C14.6176 4.25197 14.5678 4.2727 14.5235 4.30241L12.2601 5.87505C12.0753 6.00244 12.0288 6.25546 12.1562 6.44025C12.1701 6.46047 12.1859 6.47941 12.2032 6.49679L12.2885 6.58212C10.3339 8.26041 0.759938 16.7087 0.2723 20.5408C0.243092 20.7633 0.399848 20.9674 0.622384 20.9965C0.641026 20.999 0.659871 21.0001 0.678665 21H0.727429C4.55946 20.5123 13.0078 10.9343 14.6942 8.98781L14.7795 9.07314C14.8562 9.14918 14.9601 9.1916 15.0681 9.19099H15.1046C15.2296 9.1853 15.3451 9.12236 15.4175 9.02032L16.9902 6.75686C17.0458 6.6761 17.0703 6.57796 17.0593 6.48053C17.8886 6.40033 18.6699 6.05395 19.2861 5.49306C20.3833 4.45277 20.8628 2.72978 20.7003 0.376923ZM1.22319 20.045C2.51544 16.2496 11.1751 8.61395 12.8615 7.1551L14.1172 8.41077C12.6543 10.0931 5.01865 18.7487 1.22319 20.045ZM15.0112 8.15069L13.1175 6.25703L14.7023 5.15984L16.1084 6.58212L15.0112 8.15069ZM18.7213 4.88352C18.0779 5.4538 17.2349 5.74603 16.3766 5.69625L15.3932 4.71284C15.5476 3.92043 16.023 2.33154 16.8683 2.38843C17.9791 2.42338 19.0634 2.04551 19.9119 1.32782C19.9119 2.95328 19.5056 4.15206 18.7213 4.88352Z" fill="#232323"/>
</svg>
