<svg width="21" height="21" viewBox="0 0 21 21" fill="none" xmlns="http://www.w3.org/2000/svg">
<path d="M20.4489 16.2015L16.1985 13.3669C15.6591 13.0101 14.936 13.1275 14.5373 13.6367L13.2991 15.2286C13.14 15.4384 12.8508 15.4993 12.6206 15.3714L12.3851 15.2416C11.6043 14.816 10.6329 14.2862 8.67564 12.3282C6.71837 10.3703 6.18751 9.3981 5.76195 8.6188L5.63281 8.38328C5.50318 8.15314 5.56289 7.86266 5.77278 7.70228L7.36362 6.46453C7.87263 6.06571 7.9902 5.34287 7.63379 4.80331L4.79921 0.552838C4.43394 0.00339185 3.7011 -0.161549 3.13562 0.17838L1.35822 1.24606C0.799755 1.57439 0.390029 2.10611 0.214959 2.72983C-0.425077 5.06188 0.0564156 9.08663 5.98525 15.0162C10.7015 19.7321 14.2125 21.0003 16.6258 21.0003C17.1812 21.0027 17.7344 20.9304 18.2706 20.7854C18.8944 20.6106 19.4262 20.2008 19.7543 19.6422L20.8231 17.8658C21.1635 17.3002 20.9986 16.5669 20.4489 16.2015ZM20.2201 17.5068L19.1538 19.2841C18.9182 19.6874 18.5357 19.9838 18.0864 20.1114C15.9335 20.7025 12.1723 20.2129 6.4804 14.521C0.788477 8.8291 0.298946 5.06819 0.890017 2.91499C1.0178 2.46519 1.31463 2.08221 1.71833 1.84624L3.49572 0.779948C3.74108 0.632314 4.05915 0.703876 4.21765 0.942305L5.75744 3.25405L7.04981 5.19241C7.20458 5.42645 7.15373 5.74013 6.93294 5.91332L5.34172 7.15107C4.85748 7.52134 4.7192 8.19131 5.01734 8.72304L5.14369 8.95262C5.59094 9.77289 6.14699 10.7933 8.17704 12.8231C10.2071 14.8527 11.2272 15.4088 12.0471 15.856L12.277 15.9827C12.8087 16.2808 13.4787 16.1426 13.849 15.6583L15.0867 14.0671C15.26 13.8464 15.5735 13.7956 15.8076 13.9502L20.0578 16.7848C20.2963 16.9432 20.3679 17.2614 20.2201 17.5068Z" fill="#232323"/>
</svg>
